<svg xmlns="http://www.w3.org/2000/svg" xmlns:xlink="http://www.w3.org/1999/xlink" width="500" zoomAndPan="magnify" viewBox="0 0 375 374.999991" height="500" preserveAspectRatio="xMidYMid meet" version="1.0"><defs><g/></defs><g fill="#6dbec2" fill-opacity="1"><g transform="translate(39.948539, 196.923798)"><g><path d="M -5.90625 -45.390625 C -3.195312 -44.085938 -1.097656 -42.269531 0.390625 -39.9375 C 1.878906 -37.613281 2.671875 -35.007812 2.765625 -32.125 C 2.867188 -29.238281 2.210938 -26.328125 0.796875 -23.390625 C 0.503906 -22.722656 0.101562 -22.046875 -0.40625 -21.359375 C -0.925781 -20.671875 -1.445312 -19.988281 -1.96875 -19.3125 C -2.25 -18.96875 -2.523438 -18.617188 -2.796875 -18.265625 C -3.078125 -17.910156 -3.34375 -17.5625 -3.59375 -17.21875 L -3.9375 -16.734375 L -2.765625 -15.96875 C -2.210938 -15.625 -1.5625 -15.207031 -0.8125 -14.71875 C -0.0625 -14.226562 0.539062 -13.820312 1 -13.5 L 1.40625 -13.21875 C 1.894531 -12.84375 2.363281 -12.453125 2.8125 -12.046875 C 3.269531 -11.648438 3.648438 -11.21875 3.953125 -10.75 C 4.578125 -9.78125 4.863281 -8.90625 4.8125 -8.125 C 4.769531 -7.351562 4.625 -6.726562 4.375 -6.25 C 4.039062 -5.601562 3.609375 -5.09375 3.078125 -4.71875 C 2.554688 -4.34375 2.082031 -4.132812 1.65625 -4.09375 L 1.46875 -4.03125 C 0.84375 -3.769531 0.226562 -3.785156 -0.375 -4.078125 C -0.976562 -4.367188 -1.617188 -4.78125 -2.296875 -5.3125 C -2.710938 -5.65625 -3.128906 -5.992188 -3.546875 -6.328125 C -3.960938 -6.671875 -4.394531 -7.019531 -4.84375 -7.375 C -5.644531 -8.039062 -6.472656 -8.707031 -7.328125 -9.375 C -8.191406 -10.050781 -9.078125 -10.707031 -9.984375 -11.34375 C -11.535156 -12.445312 -13.144531 -13.492188 -14.8125 -14.484375 C -16.476562 -15.472656 -18.140625 -16.441406 -19.796875 -17.390625 C -21.328125 -18.253906 -22.859375 -19.144531 -24.390625 -20.0625 C -25.929688 -20.988281 -27.453125 -21.957031 -28.953125 -22.96875 C -29.328125 -23.226562 -29.6875 -23.492188 -30.03125 -23.765625 C -30.382812 -24.046875 -30.71875 -24.335938 -31.03125 -24.640625 C -32.039062 -25.710938 -32.351562 -26.859375 -31.96875 -28.078125 C -31.832031 -28.367188 -31.671875 -28.648438 -31.484375 -28.921875 C -30.960938 -29.648438 -30.195312 -30.113281 -29.1875 -30.3125 C -29.070312 -30.363281 -28.867188 -30.375 -28.578125 -30.34375 C -28.398438 -30.34375 -28.242188 -30.34375 -28.109375 -30.34375 L -27.5 -30.359375 L -27.5 -30.90625 C -27.488281 -33.957031 -26.664062 -36.878906 -25.03125 -39.671875 C -23.59375 -42.078125 -21.851562 -43.910156 -19.8125 -45.171875 C -17.78125 -46.429688 -15.578125 -47.09375 -13.203125 -47.15625 C -10.828125 -47.226562 -8.394531 -46.640625 -5.90625 -45.390625 Z M -7.34375 -31.859375 C -7.769531 -34.898438 -9.3125 -36.785156 -11.96875 -37.515625 C -13.144531 -37.816406 -14.191406 -37.695312 -15.109375 -37.15625 C -15.816406 -36.707031 -16.421875 -36.003906 -16.921875 -35.046875 C -17.429688 -34.085938 -17.75 -33.066406 -17.875 -31.984375 C -18.007812 -30.910156 -17.890625 -29.960938 -17.515625 -29.140625 C -16.347656 -26.390625 -14.300781 -23.976562 -11.375 -21.90625 L -10.9375 -21.59375 L -10.609375 -22 C -10.359375 -22.34375 -10.128906 -22.664062 -9.921875 -22.96875 C -7.765625 -26 -6.90625 -28.960938 -7.34375 -31.859375 Z M -7.34375 -31.859375 "/></g></g></g><g fill="#6dbec2" fill-opacity="1"><g transform="translate(58.551983, 170.024157)"><g><path d="M -0.78125 -51.390625 C 0.625 -50.753906 1.59375 -50.078125 2.125 -49.359375 C 6.476562 -43.460938 10.285156 -38.132812 13.546875 -33.375 C 14.054688 -32.582031 14.492188 -31.71875 14.859375 -30.78125 C 15.234375 -29.84375 15.566406 -28.914062 15.859375 -28 C 17.160156 -23.957031 16.820312 -20.21875 14.84375 -16.78125 C 12.84375 -13.34375 9.71875 -11.175781 5.46875 -10.28125 C -0.96875 -8.9375 -6.703125 -10.660156 -11.734375 -15.453125 C -12.109375 -15.796875 -12.457031 -16.148438 -12.78125 -16.515625 C -13.113281 -16.890625 -13.453125 -17.257812 -13.796875 -17.625 C -13.972656 -17.800781 -14.140625 -17.972656 -14.296875 -18.140625 C -14.460938 -18.316406 -14.617188 -18.476562 -14.765625 -18.625 L -15.171875 -19.0625 L -15.328125 -18.921875 L -16.515625 -20.375 C -17.347656 -21.40625 -18.1875 -22.4375 -19.03125 -23.46875 C -19.875 -24.5 -20.695312 -25.546875 -21.5 -26.609375 C -21.820312 -27.003906 -22.140625 -27.515625 -22.453125 -28.140625 C -23.179688 -29.679688 -23.035156 -31.007812 -22.015625 -32.125 C -21.535156 -32.644531 -20.925781 -32.945312 -20.1875 -33.03125 C -19.445312 -33.125 -18.726562 -32.957031 -18.03125 -32.53125 C -16.875 -31.894531 -15.601562 -30.984375 -14.21875 -29.796875 C -13.300781 -28.984375 -12.378906 -28.171875 -11.453125 -27.359375 C -10.535156 -26.554688 -9.613281 -25.75 -8.6875 -24.9375 C -8.125 -24.445312 -7.539062 -23.941406 -6.9375 -23.421875 C -6.34375 -22.910156 -5.753906 -22.390625 -5.171875 -21.859375 C -2.515625 -19.546875 0.441406 -18.6875 3.703125 -19.28125 C 5.804688 -19.664062 7.203125 -20.5625 7.890625 -21.96875 C 8.503906 -23.25 8.390625 -24.691406 7.546875 -26.296875 C 6.671875 -27.941406 5.71875 -29.535156 4.6875 -31.078125 C 3.65625 -32.617188 2.613281 -34.117188 1.5625 -35.578125 L 1.078125 -36.3125 C 0.609375 -36.957031 0.125 -37.59375 -0.375 -38.21875 C -0.882812 -38.851562 -1.382812 -39.484375 -1.875 -40.109375 C -2.289062 -40.609375 -2.710938 -41.132812 -3.140625 -41.6875 C -3.578125 -42.238281 -3.988281 -42.765625 -4.375 -43.265625 C -5.1875 -44.367188 -5.769531 -45.523438 -6.125 -46.734375 C -6.570312 -48.285156 -6.140625 -49.613281 -4.828125 -50.71875 C -3.585938 -51.800781 -2.238281 -52.023438 -0.78125 -51.390625 Z M -0.78125 -51.390625 "/></g></g></g><g fill="#6dbec2" fill-opacity="1"><g transform="translate(82.911462, 145.88442)"><g><path d="M 13.953125 -53.84375 C 14.691406 -53.050781 15.382812 -52.132812 16.03125 -51.09375 L 18.25 -47.296875 C 19.976562 -44.359375 21.726562 -41.390625 23.5 -38.390625 C 25.28125 -35.398438 27.023438 -32.390625 28.734375 -29.359375 C 30.609375 -26.128906 30.960938 -23.484375 29.796875 -21.421875 C 28.679688 -19.429688 26.3125 -18.367188 22.6875 -18.234375 C 20.832031 -18.171875 18.988281 -18.335938 17.15625 -18.734375 C 15.320312 -19.140625 13.769531 -19.5625 12.5 -20 C 10.957031 -20.46875 9.414062 -21.015625 7.875 -21.640625 C 6.34375 -22.273438 4.835938 -22.910156 3.359375 -23.546875 C 2.734375 -23.796875 2.117188 -24.050781 1.515625 -24.3125 C 0.910156 -24.570312 0.304688 -24.820312 -0.296875 -25.0625 L -0.6875 -25.28125 C -1.019531 -25.40625 -1.367188 -25.53125 -1.734375 -25.65625 C -2.109375 -25.789062 -2.539062 -25.875 -3.03125 -25.90625 L -4.1875 -26.03125 L -3.28125 -24.5625 C -3.164062 -24.375 -3.054688 -24.195312 -2.953125 -24.03125 C -2.847656 -23.863281 -2.738281 -23.691406 -2.625 -23.515625 L -0.921875 -20.453125 C 0.179688 -18.523438 1.296875 -16.578125 2.421875 -14.609375 C 3.554688 -12.640625 4.671875 -10.6875 5.765625 -8.75 C 6.160156 -8.039062 6.394531 -7.21875 6.46875 -6.28125 C 6.59375 -5.050781 6.253906 -4.171875 5.453125 -3.640625 C 4.703125 -3.085938 3.789062 -3.09375 2.71875 -3.65625 C 1.78125 -4.082031 1.070312 -4.628906 0.59375 -5.296875 C -2.957031 -9.703125 -6.035156 -13.878906 -8.640625 -17.828125 C -11.253906 -21.773438 -13.523438 -25.691406 -15.453125 -29.578125 C -15.828125 -30.222656 -16.085938 -30.992188 -16.234375 -31.890625 C -16.503906 -33.429688 -16.195312 -34.75 -15.3125 -35.84375 C -14.957031 -36.238281 -14.585938 -36.554688 -14.203125 -36.796875 C -13.460938 -37.253906 -12.644531 -37.488281 -11.75 -37.5 C -10.425781 -37.550781 -9.164062 -37.363281 -7.96875 -36.9375 C -6.59375 -36.425781 -5.210938 -35.90625 -3.828125 -35.375 C -2.453125 -34.84375 -1.097656 -34.316406 0.234375 -33.796875 C 0.984375 -33.515625 1.734375 -33.222656 2.484375 -32.921875 C 3.234375 -32.628906 3.992188 -32.347656 4.765625 -32.078125 C 6.109375 -31.546875 7.429688 -31.035156 8.734375 -30.546875 C 10.046875 -30.054688 11.375 -29.550781 12.71875 -29.03125 L 16.734375 -27.546875 L 17.640625 -28.734375 L 17.171875 -29.578125 C 17.085938 -29.773438 16.988281 -29.960938 16.875 -30.140625 C 16.757812 -30.328125 16.664062 -30.519531 16.59375 -30.71875 C 16.15625 -31.414062 15.734375 -32.125 15.328125 -32.84375 C 14.929688 -33.570312 14.519531 -34.285156 14.09375 -34.984375 C 13.0625 -36.753906 12.03125 -38.539062 11 -40.34375 C 9.96875 -42.15625 8.9375 -43.957031 7.90625 -45.75 C 7.175781 -47.144531 6.660156 -48.640625 6.359375 -50.234375 C 6.171875 -51.253906 6.300781 -52.195312 6.75 -53.0625 C 7.207031 -53.9375 7.890625 -54.585938 8.796875 -55.015625 C 9.640625 -55.410156 10.535156 -55.503906 11.484375 -55.296875 C 12.441406 -55.085938 13.265625 -54.601562 13.953125 -53.84375 Z M 13.953125 -53.84375 "/></g></g></g><g fill="#6dbec2" fill-opacity="1"><g transform="translate(117.320778, 125.546234)"><g/></g></g><g fill="#6dbec2" fill-opacity="1"><g transform="translate(130.227187, 119.982873)"><g><path d="M 1.9375 -34.25 C 3.394531 -30.726562 4.582031 -27.113281 5.5 -23.40625 C 6.425781 -19.695312 7.273438 -16.03125 8.046875 -12.40625 L 8.78125 -9.25 C 8.914062 -8.5 8.90625 -7.644531 8.75 -6.6875 C 8.394531 -5.019531 7.546875 -3.957031 6.203125 -3.5 C 4.941406 -3.070312 3.734375 -3.382812 2.578125 -4.4375 C 1.160156 -5.726562 0.0703125 -7.34375 -0.6875 -9.28125 C -1.238281 -10.570312 -1.742188 -11.894531 -2.203125 -13.25 C -2.660156 -14.601562 -3.09375 -15.945312 -3.5 -17.28125 C -3.675781 -17.820312 -3.859375 -18.375 -4.046875 -18.9375 C -4.242188 -19.5 -4.4375 -20.066406 -4.625 -20.640625 L -4.8125 -21.203125 L -5.03125 -21.140625 C -5.125 -21.554688 -5.234375 -21.976562 -5.359375 -22.40625 C -5.492188 -22.84375 -5.628906 -23.265625 -5.765625 -23.671875 C -6.117188 -24.941406 -6.472656 -26.222656 -6.828125 -27.515625 C -7.191406 -28.816406 -7.539062 -30.128906 -7.875 -31.453125 C -8.269531 -33.085938 -8.484375 -34.65625 -8.515625 -36.15625 C -8.484375 -37.1875 -8.191406 -38.085938 -7.640625 -38.859375 C -7.085938 -39.640625 -6.347656 -40.164062 -5.421875 -40.4375 C -3.378906 -41.007812 -1.757812 -40.457031 -0.5625 -38.78125 C 0.351562 -37.550781 1.1875 -36.039062 1.9375 -34.25 Z M 1.9375 -34.25 "/></g></g></g><g fill="#6dbec2" fill-opacity="1"><g transform="translate(141.720872, 114.824054)"><g><path d="M 32.875 -44.875 C 33.269531 -43.851562 33.578125 -42.742188 33.796875 -41.546875 L 34.453125 -37.203125 C 34.972656 -33.835938 35.503906 -30.429688 36.046875 -26.984375 C 36.585938 -23.535156 37.09375 -20.085938 37.5625 -16.640625 C 38.113281 -12.953125 37.460938 -10.363281 35.609375 -8.875 C 33.828125 -7.4375 31.234375 -7.328125 27.828125 -8.546875 C 26.078125 -9.171875 24.425781 -10.007812 22.875 -11.0625 C 21.320312 -12.113281 20.03125 -13.082031 19 -13.96875 C 17.738281 -14.96875 16.515625 -16.039062 15.328125 -17.1875 C 14.140625 -18.34375 12.972656 -19.492188 11.828125 -20.640625 C 11.347656 -21.097656 10.875 -21.554688 10.40625 -22.015625 C 9.945312 -22.484375 9.472656 -22.945312 8.984375 -23.40625 L 8.703125 -23.71875 C 8.453125 -23.976562 8.175781 -24.234375 7.875 -24.484375 C 7.582031 -24.734375 7.210938 -24.972656 6.765625 -25.203125 L 5.734375 -25.71875 L 6.03125 -24.03125 C 6.070312 -23.8125 6.109375 -23.601562 6.140625 -23.40625 C 6.171875 -23.21875 6.207031 -23.019531 6.25 -22.8125 L 6.703125 -19.34375 C 7.015625 -17.144531 7.332031 -14.921875 7.65625 -12.671875 C 7.988281 -10.421875 8.300781 -8.195312 8.59375 -6 C 8.707031 -5.1875 8.617188 -4.335938 8.328125 -3.453125 C 7.992188 -2.253906 7.359375 -1.554688 6.421875 -1.359375 C 5.515625 -1.128906 4.664062 -1.46875 3.875 -2.375 C 3.164062 -3.125 2.707031 -3.898438 2.5 -4.703125 C 0.84375 -10.109375 -0.46875 -15.125 -1.4375 -19.75 C -2.40625 -24.382812 -3.066406 -28.863281 -3.421875 -33.1875 C -3.523438 -33.9375 -3.476562 -34.753906 -3.28125 -35.640625 C -2.96875 -37.171875 -2.195312 -38.285156 -0.96875 -38.984375 C -0.507812 -39.210938 -0.0507812 -39.367188 0.40625 -39.453125 C 1.257812 -39.597656 2.109375 -39.503906 2.953125 -39.171875 C 4.203125 -38.734375 5.304688 -38.097656 6.265625 -37.265625 C 7.335938 -36.296875 8.421875 -35.304688 9.515625 -34.296875 C 10.609375 -33.285156 11.671875 -32.289062 12.703125 -31.3125 C 13.316406 -30.769531 13.914062 -30.222656 14.5 -29.671875 C 15.082031 -29.128906 15.675781 -28.582031 16.28125 -28.03125 C 17.332031 -27.050781 18.378906 -26.085938 19.421875 -25.140625 C 20.460938 -24.203125 21.503906 -23.242188 22.546875 -22.265625 L 25.734375 -19.40625 L 27.015625 -20.171875 L 26.890625 -21.125 C 26.878906 -21.34375 26.851562 -21.554688 26.8125 -21.765625 C 26.78125 -21.984375 26.769531 -22.203125 26.78125 -22.421875 C 26.632812 -23.234375 26.503906 -24.046875 26.390625 -24.859375 C 26.285156 -25.671875 26.160156 -26.484375 26.015625 -27.296875 C 25.734375 -29.316406 25.441406 -31.351562 25.140625 -33.40625 C 24.847656 -35.46875 24.5625 -37.53125 24.28125 -39.59375 C 24.101562 -41.144531 24.171875 -42.71875 24.484375 -44.3125 C 24.691406 -45.332031 25.164062 -46.160156 25.90625 -46.796875 C 26.65625 -47.441406 27.53125 -47.796875 28.53125 -47.859375 C 29.46875 -47.921875 30.335938 -47.675781 31.140625 -47.125 C 31.941406 -46.582031 32.519531 -45.832031 32.875 -44.875 Z M 32.875 -44.875 "/></g></g></g><g fill="#6dbec2" fill-opacity="1"><g transform="translate(180.294652, 107.96856)"><g><path d="M 31.546875 -38.640625 C 32.679688 -38.285156 33.554688 -37.675781 34.171875 -36.8125 C 34.796875 -35.945312 35.039062 -35.003906 34.90625 -33.984375 C 34.757812 -32.910156 34.289062 -32.015625 33.5 -31.296875 C 32.707031 -30.585938 31.722656 -30.210938 30.546875 -30.171875 C 29.972656 -30.160156 29.398438 -30.160156 28.828125 -30.171875 C 28.253906 -30.191406 27.679688 -30.207031 27.109375 -30.21875 C 26.828125 -30.226562 26.550781 -30.238281 26.28125 -30.25 C 26.007812 -30.257812 25.734375 -30.265625 25.453125 -30.265625 L 20.515625 -30.40625 L 20.59375 -29.75 C 20.644531 -29.070312 20.71875 -28.40625 20.8125 -27.75 C 20.90625 -27.101562 20.976562 -26.460938 21.03125 -25.828125 C 21.195312 -24.390625 21.347656 -22.976562 21.484375 -21.59375 C 21.628906 -20.21875 21.757812 -18.847656 21.875 -17.484375 C 22.007812 -15.984375 22.128906 -14.378906 22.234375 -12.671875 C 22.347656 -10.960938 22.421875 -9.210938 22.453125 -7.421875 C 22.441406 -6.140625 22.144531 -4.785156 21.5625 -3.359375 C 20.800781 -1.585938 19.441406 -0.710938 17.484375 -0.734375 C 15.472656 -0.828125 14.15625 -1.765625 13.53125 -3.546875 C 12.9375 -5.273438 12.660156 -6.976562 12.703125 -8.65625 C 12.773438 -11.019531 12.859375 -13.367188 12.953125 -15.703125 C 13.054688 -18.046875 13.179688 -20.378906 13.328125 -22.703125 C 13.347656 -23.640625 13.378906 -24.570312 13.421875 -25.5 C 13.460938 -26.425781 13.519531 -27.375 13.59375 -28.34375 C 13.59375 -28.488281 13.578125 -28.738281 13.546875 -29.09375 L 13.53125 -30.015625 L 11.765625 -30.21875 C 11.160156 -30.3125 10.550781 -30.390625 9.9375 -30.453125 C 9.332031 -30.523438 8.726562 -30.609375 8.125 -30.703125 C 7.800781 -30.753906 7.503906 -30.796875 7.234375 -30.828125 C 6.960938 -30.867188 6.6875 -30.929688 6.40625 -31.015625 C 4.132812 -31.617188 2.988281 -32.832031 2.96875 -34.65625 C 2.945312 -36.5625 4.128906 -37.816406 6.515625 -38.421875 L 6.671875 -38.421875 C 6.785156 -38.492188 6.859375 -38.53125 6.890625 -38.53125 C 8.035156 -38.5625 9.179688 -38.613281 10.328125 -38.6875 C 11.484375 -38.769531 12.613281 -38.867188 13.71875 -38.984375 C 15.5625 -39.109375 17.40625 -39.234375 19.25 -39.359375 C 21.09375 -39.484375 22.925781 -39.519531 24.75 -39.46875 C 25.675781 -39.445312 26.59375 -39.394531 27.5 -39.3125 C 28.40625 -39.238281 29.328125 -39.113281 30.265625 -38.9375 C 30.722656 -38.851562 31.148438 -38.753906 31.546875 -38.640625 Z M 31.546875 -38.640625 "/></g></g></g><g fill="#6dbec2" fill-opacity="1"><g transform="translate(213.34742, 108.885756)"><g><path d="M 25.3125 -4.796875 C 25.945312 -4.710938 26.609375 -4.476562 27.296875 -4.09375 C 27.992188 -3.71875 28.457031 -3.035156 28.6875 -2.046875 C 29.0625 -0.503906 28.484375 0.816406 26.953125 1.921875 C 26.003906 2.609375 24.953125 3.113281 23.796875 3.4375 C 18.859375 4.695312 13.832031 4.257812 8.71875 2.125 C 5.726562 0.851562 4.101562 -1.597656 3.84375 -5.234375 C 3.707031 -7.535156 3.910156 -9.769531 4.453125 -11.9375 C 5.003906 -14.101562 5.617188 -16.125 6.296875 -18 C 6.867188 -19.5625 7.457031 -21.117188 8.0625 -22.671875 C 8.675781 -24.234375 9.285156 -25.773438 9.890625 -27.296875 C 10.179688 -28.035156 10.46875 -28.769531 10.75 -29.5 C 11.03125 -30.226562 11.316406 -30.96875 11.609375 -31.71875 L 11.6875 -31.921875 C 11.78125 -32.117188 11.863281 -32.328125 11.9375 -32.546875 C 12.019531 -32.765625 12.050781 -33.003906 12.03125 -33.265625 C 12.039062 -35.273438 13.195312 -36.628906 15.5 -37.328125 C 15.925781 -37.460938 16.359375 -37.578125 16.796875 -37.671875 C 17.242188 -37.765625 17.679688 -37.804688 18.109375 -37.796875 L 20.4375 -37.640625 C 22.09375 -37.523438 23.773438 -37.410156 25.484375 -37.296875 C 27.191406 -37.179688 28.882812 -36.992188 30.5625 -36.734375 C 30.695312 -36.710938 30.832031 -36.6875 30.96875 -36.65625 C 32.625 -36.3125 33.859375 -35.566406 34.671875 -34.421875 C 35.429688 -33.421875 35.703125 -32.320312 35.484375 -31.125 C 35.242188 -29.78125 34.519531 -28.773438 33.3125 -28.109375 C 32.101562 -27.453125 30.648438 -27.242188 28.953125 -27.484375 C 27.835938 -27.628906 26.738281 -27.832031 25.65625 -28.09375 C 24.582031 -28.351562 23.507812 -28.625 22.4375 -28.90625 L 21.078125 -29.25 C 20.410156 -29.414062 19.882812 -29.53125 19.5 -29.59375 C 19.113281 -29.65625 18.769531 -29.585938 18.46875 -29.390625 C 18.1875 -29.222656 17.988281 -28.953125 17.875 -28.578125 C 17.757812 -28.203125 17.632812 -27.675781 17.5 -27 C 17.363281 -26.34375 17.226562 -25.675781 17.09375 -25 C 16.957031 -24.332031 16.820312 -23.671875 16.6875 -23.015625 L 16.140625 -20.375 L 16.859375 -20.34375 C 17.253906 -20.332031 17.644531 -20.328125 18.03125 -20.328125 C 18.414062 -20.328125 18.8125 -20.332031 19.21875 -20.34375 C 20.050781 -20.332031 20.875 -20.316406 21.6875 -20.296875 C 22.507812 -20.273438 23.3125 -20.21875 24.09375 -20.125 C 26.101562 -19.894531 27.90625 -19.421875 29.5 -18.703125 C 30.945312 -18.078125 31.566406 -16.984375 31.359375 -15.421875 C 31.242188 -14.523438 30.90625 -13.867188 30.34375 -13.453125 C 29.789062 -13.035156 29.242188 -12.757812 28.703125 -12.625 C 27.347656 -12.238281 26.082031 -12.109375 24.90625 -12.234375 C 23.757812 -12.347656 22.59375 -12.5 21.40625 -12.6875 C 20.226562 -12.882812 19.03125 -13.070312 17.8125 -13.25 C 17.320312 -13.34375 16.820312 -13.421875 16.3125 -13.484375 C 15.800781 -13.554688 15.28125 -13.644531 14.75 -13.75 L 14.21875 -13.8125 L 14.109375 -13.296875 C 14.066406 -13.046875 14.015625 -12.785156 13.953125 -12.515625 C 13.898438 -12.253906 13.847656 -12.003906 13.796875 -11.765625 C 13.648438 -11.023438 13.5 -10.273438 13.34375 -9.515625 C 13.195312 -8.765625 13.0625 -8.019531 12.9375 -7.28125 C 12.882812 -7.039062 12.914062 -6.804688 13.03125 -6.578125 C 13.15625 -6.347656 13.257812 -6.171875 13.34375 -6.046875 C 13.457031 -5.910156 13.609375 -5.757812 13.796875 -5.59375 C 13.984375 -5.425781 14.195312 -5.320312 14.4375 -5.28125 C 16.4375 -5.007812 18.664062 -4.832031 21.125 -4.75 C 21.445312 -4.707031 21.765625 -4.703125 22.078125 -4.734375 C 22.398438 -4.765625 22.707031 -4.78125 23 -4.78125 C 23.40625 -4.820312 23.800781 -4.84375 24.1875 -4.84375 C 24.570312 -4.851562 24.945312 -4.835938 25.3125 -4.796875 Z M 25.3125 -4.796875 "/></g></g></g><g fill="#6dbec2" fill-opacity="1"><g transform="translate(240.42079, 113.518707)"><g><path d="M 51.828125 -20.203125 C 51.609375 -19.140625 51.265625 -18.046875 50.796875 -16.921875 L 49.03125 -12.890625 C 47.664062 -9.773438 46.285156 -6.613281 44.890625 -3.40625 C 43.503906 -0.207031 42.082031 2.960938 40.625 6.109375 C 39.101562 9.515625 37.160156 11.351562 34.796875 11.625 C 32.535156 11.875 30.289062 10.570312 28.0625 7.71875 C 26.914062 6.25 25.972656 4.65625 25.234375 2.9375 C 24.492188 1.21875 23.925781 -0.285156 23.53125 -1.578125 C 23 -3.097656 22.539062 -4.660156 22.15625 -6.265625 C 21.78125 -7.878906 21.410156 -9.476562 21.046875 -11.0625 C 20.890625 -11.71875 20.738281 -12.363281 20.59375 -13 C 20.457031 -13.632812 20.304688 -14.273438 20.140625 -14.921875 L 20.09375 -15.359375 C 20 -15.703125 19.894531 -16.0625 19.78125 -16.4375 C 19.664062 -16.8125 19.484375 -17.207031 19.234375 -17.625 L 18.640625 -18.640625 L 17.984375 -17.046875 C 17.898438 -16.835938 17.820312 -16.640625 17.75 -16.453125 C 17.675781 -16.273438 17.597656 -16.09375 17.515625 -15.90625 L 16.046875 -12.734375 C 15.128906 -10.703125 14.203125 -8.648438 13.265625 -6.578125 C 12.335938 -4.515625 11.398438 -2.472656 10.453125 -0.453125 C 10.109375 0.285156 9.582031 0.957031 8.875 1.5625 C 7.945312 2.382812 7.03125 2.628906 6.125 2.296875 C 5.25 2.015625 4.726562 1.269531 4.5625 0.0625 C 4.351562 -0.945312 4.375 -1.84375 4.625 -2.625 C 6.125 -8.070312 7.707031 -13.007812 9.375 -17.4375 C 11.050781 -21.863281 12.894531 -26 14.90625 -29.84375 C 15.226562 -30.53125 15.710938 -31.191406 16.359375 -31.828125 C 17.441406 -32.953125 18.691406 -33.476562 20.109375 -33.40625 C 20.617188 -33.351562 21.085938 -33.238281 21.515625 -33.0625 C 22.316406 -32.726562 22.988281 -32.195312 23.53125 -31.46875 C 24.34375 -30.4375 24.925781 -29.304688 25.28125 -28.078125 C 25.664062 -26.671875 26.046875 -25.253906 26.421875 -23.828125 C 26.796875 -22.398438 27.164062 -20.988281 27.53125 -19.59375 C 27.75 -18.8125 27.957031 -18.03125 28.15625 -17.25 C 28.363281 -16.476562 28.570312 -15.695312 28.78125 -14.90625 C 29.15625 -13.519531 29.519531 -12.148438 29.875 -10.796875 C 30.238281 -9.441406 30.609375 -8.070312 30.984375 -6.6875 L 32.109375 -2.5625 L 33.625 -2.515625 L 34.03125 -3.390625 C 34.132812 -3.578125 34.226562 -3.769531 34.3125 -3.96875 C 34.394531 -4.175781 34.5 -4.367188 34.625 -4.546875 C 34.9375 -5.304688 35.265625 -6.054688 35.609375 -6.796875 C 35.953125 -7.546875 36.28125 -8.300781 36.59375 -9.0625 C 37.445312 -10.914062 38.300781 -12.789062 39.15625 -14.6875 C 40.007812 -16.582031 40.863281 -18.476562 41.71875 -20.375 C 42.414062 -21.789062 43.320312 -23.085938 44.4375 -24.265625 C 45.15625 -24.992188 46 -25.429688 46.96875 -25.578125 C 47.945312 -25.734375 48.878906 -25.566406 49.765625 -25.078125 C 50.578125 -24.617188 51.175781 -23.941406 51.5625 -23.046875 C 51.945312 -22.148438 52.035156 -21.203125 51.828125 -20.203125 Z M 51.828125 -20.203125 "/></g></g></g><g fill="#6dbec2" fill-opacity="1"><g transform="translate(276.635475, 128.349984)"><g><path d="M 44.1875 -12.703125 C 44.695312 -10.140625 44.675781 -7.550781 44.125 -4.9375 C 43.582031 -2.332031 42.546875 0.09375 41.015625 2.34375 C 37.734375 7.164062 33.226562 9.6875 27.5 9.90625 C 20.175781 10.15625 13.515625 8.425781 7.515625 4.71875 C 6.109375 3.84375 5.015625 2.582031 4.234375 0.9375 C 3.703125 -0.0703125 3.632812 -1.09375 4.03125 -2.125 C 4.445312 -3.351562 5.378906 -4.304688 6.828125 -4.984375 C 8.003906 -5.503906 8.953125 -6.257812 9.671875 -7.25 C 10.972656 -9.082031 12.273438 -10.921875 13.578125 -12.765625 C 14.878906 -14.609375 16.191406 -16.46875 17.515625 -18.34375 C 18.398438 -19.59375 19.285156 -20.851562 20.171875 -22.125 C 21.066406 -23.40625 21.96875 -24.675781 22.875 -25.9375 C 23.476562 -26.820312 24.03125 -27.460938 24.53125 -27.859375 C 25.039062 -28.253906 25.609375 -28.453125 26.234375 -28.453125 C 26.859375 -28.453125 27.679688 -28.296875 28.703125 -27.984375 C 29.492188 -27.753906 30.296875 -27.476562 31.109375 -27.15625 C 31.929688 -26.84375 32.734375 -26.53125 33.515625 -26.21875 C 33.796875 -26.101562 34.066406 -25.988281 34.328125 -25.875 C 34.597656 -25.757812 34.867188 -25.648438 35.140625 -25.546875 L 35.015625 -25.265625 L 35.40625 -25 C 37.726562 -23.539062 39.644531 -21.75 41.15625 -19.625 C 42.675781 -17.507812 43.6875 -15.203125 44.1875 -12.703125 Z M 26.5625 -0.734375 C 28.019531 -0.648438 29.40625 -0.953125 30.71875 -1.640625 C 32.03125 -2.328125 33.09375 -3.304688 33.90625 -4.578125 C 34.789062 -5.878906 35.289062 -7.285156 35.40625 -8.796875 C 35.53125 -10.304688 35.289062 -11.753906 34.6875 -13.140625 C 34.144531 -14.328125 33.425781 -15.363281 32.53125 -16.25 C 31.644531 -17.132812 30.742188 -17.976562 29.828125 -18.78125 C 29.640625 -18.957031 29.453125 -19.128906 29.265625 -19.296875 C 29.078125 -19.472656 28.875 -19.65625 28.65625 -19.84375 L 28.140625 -20.3125 L 16.78125 -1.875 L 17.703125 -1.765625 C 18.234375 -1.722656 18.742188 -1.660156 19.234375 -1.578125 C 19.722656 -1.503906 20.210938 -1.4375 20.703125 -1.375 C 21.703125 -1.195312 22.679688 -1.050781 23.640625 -0.9375 C 24.597656 -0.832031 25.570312 -0.765625 26.5625 -0.734375 Z M 26.5625 -0.734375 "/></g></g></g><g fill="#6dbec2" fill-opacity="1"><g transform="translate(304.958851, 147.688744)"><g><path d="M 23.875 9.6875 C 24.363281 10.101562 24.789062 10.65625 25.15625 11.34375 C 25.53125 12.039062 25.550781 12.875 25.21875 13.84375 C 24.695312 15.34375 23.488281 16.144531 21.59375 16.25 C 20.4375 16.300781 19.28125 16.144531 18.125 15.78125 C 13.300781 14.164062 9.316406 11.070312 6.171875 6.5 C 4.359375 3.8125 4.328125 0.875 6.078125 -2.3125 C 7.203125 -4.320312 8.582031 -6.085938 10.21875 -7.609375 C 11.851562 -9.128906 13.460938 -10.492188 15.046875 -11.703125 C 16.378906 -12.710938 17.722656 -13.703125 19.078125 -14.671875 C 20.429688 -15.648438 21.773438 -16.617188 23.109375 -17.578125 C 23.765625 -18.035156 24.40625 -18.492188 25.03125 -18.953125 C 25.664062 -19.421875 26.304688 -19.882812 26.953125 -20.34375 L 27.140625 -20.46875 C 27.328125 -20.59375 27.507812 -20.722656 27.6875 -20.859375 C 27.875 -20.992188 28.03125 -21.179688 28.15625 -21.421875 C 29.25 -23.109375 30.953125 -23.617188 33.265625 -22.953125 C 33.703125 -22.828125 34.128906 -22.6875 34.546875 -22.53125 C 34.972656 -22.375 35.359375 -22.171875 35.703125 -21.921875 L 37.59375 -20.546875 C 38.914062 -19.546875 40.265625 -18.535156 41.640625 -17.515625 C 43.023438 -16.492188 44.34375 -15.414062 45.59375 -14.28125 C 45.6875 -14.1875 45.785156 -14.085938 45.890625 -13.984375 C 47.097656 -12.804688 47.726562 -11.515625 47.78125 -10.109375 C 47.882812 -8.859375 47.519531 -7.785156 46.6875 -6.890625 C 45.769531 -5.910156 44.617188 -5.46875 43.234375 -5.5625 C 41.859375 -5.65625 40.519531 -6.257812 39.21875 -7.375 C 38.363281 -8.101562 37.550781 -8.867188 36.78125 -9.671875 C 36.019531 -10.472656 35.269531 -11.285156 34.53125 -12.109375 L 33.5625 -13.140625 C 33.09375 -13.640625 32.710938 -14.019531 32.421875 -14.28125 C 32.128906 -14.550781 31.8125 -14.679688 31.46875 -14.671875 C 31.132812 -14.679688 30.816406 -14.5625 30.515625 -14.3125 C 30.210938 -14.0625 29.820312 -13.691406 29.34375 -13.203125 C 28.875 -12.710938 28.398438 -12.222656 27.921875 -11.734375 C 27.441406 -11.242188 26.96875 -10.757812 26.5 -10.28125 L 24.625 -8.359375 L 25.1875 -7.953125 C 25.519531 -7.722656 25.84375 -7.503906 26.15625 -7.296875 C 26.476562 -7.085938 26.820312 -6.878906 27.1875 -6.671875 C 27.875 -6.203125 28.554688 -5.734375 29.234375 -5.265625 C 29.910156 -4.804688 30.554688 -4.328125 31.171875 -3.828125 C 32.734375 -2.554688 33.988281 -1.1875 34.9375 0.28125 C 35.8125 1.59375 35.734375 2.847656 34.703125 4.046875 C 34.128906 4.734375 33.492188 5.097656 32.796875 5.140625 C 32.097656 5.191406 31.488281 5.132812 30.96875 4.96875 C 29.613281 4.550781 28.476562 3.96875 27.5625 3.21875 C 26.664062 2.488281 25.769531 1.726562 24.875 0.9375 C 23.976562 0.144531 23.070312 -0.648438 22.15625 -1.453125 C 21.789062 -1.804688 21.410156 -2.148438 21.015625 -2.484375 C 20.628906 -2.816406 20.242188 -3.171875 19.859375 -3.546875 L 19.4375 -3.890625 L 19.0625 -3.515625 C 18.882812 -3.335938 18.703125 -3.148438 18.515625 -2.953125 C 18.328125 -2.765625 18.144531 -2.578125 17.96875 -2.390625 C 17.445312 -1.859375 16.914062 -1.316406 16.375 -0.765625 C 15.832031 -0.210938 15.3125 0.335938 14.8125 0.890625 C 14.632812 1.066406 14.535156 1.285156 14.515625 1.546875 C 14.503906 1.804688 14.5 2.007812 14.5 2.15625 C 14.519531 2.332031 14.5625 2.539062 14.625 2.78125 C 14.6875 3.019531 14.804688 3.226562 14.984375 3.40625 C 16.523438 4.707031 18.300781 6.066406 20.3125 7.484375 C 20.570312 7.671875 20.84375 7.84375 21.125 8 C 21.40625 8.15625 21.664062 8.304688 21.90625 8.453125 C 22.28125 8.640625 22.628906 8.832031 22.953125 9.03125 C 23.285156 9.226562 23.59375 9.445312 23.875 9.6875 Z M 23.875 9.6875 "/></g></g></g><g fill="#6dbec2" fill-opacity="1"><g transform="translate(325.105672, 166.616658)"><g><path d="M 45.859375 3.328125 C 45.460938 5.890625 44.554688 8.304688 43.140625 10.578125 C 41.722656 12.847656 39.910156 14.773438 37.703125 16.359375 C 32.953125 19.742188 27.847656 20.546875 22.390625 18.765625 C 15.429688 16.484375 9.773438 12.566406 5.421875 7.015625 C 4.398438 5.722656 3.8125 4.164062 3.65625 2.34375 C 3.507812 1.207031 3.800781 0.222656 4.53125 -0.609375 C 5.34375 -1.617188 6.539062 -2.1875 8.125 -2.3125 C 9.414062 -2.40625 10.570312 -2.789062 11.59375 -3.46875 C 13.4375 -4.738281 15.285156 -6.015625 17.140625 -7.296875 C 19.003906 -8.585938 20.875 -9.878906 22.75 -11.171875 C 24.03125 -12.046875 25.304688 -12.929688 26.578125 -13.828125 C 27.859375 -14.722656 29.140625 -15.597656 30.421875 -16.453125 C 31.285156 -17.078125 32.023438 -17.484375 32.640625 -17.671875 C 33.253906 -17.867188 33.851562 -17.859375 34.4375 -17.640625 C 35.03125 -17.429688 35.75 -17.007812 36.59375 -16.375 C 37.257812 -15.882812 37.921875 -15.347656 38.578125 -14.765625 C 39.242188 -14.179688 39.878906 -13.601562 40.484375 -13.03125 C 40.722656 -12.84375 40.945312 -12.644531 41.15625 -12.4375 C 41.363281 -12.238281 41.578125 -12.046875 41.796875 -11.859375 L 41.578125 -11.640625 L 41.859375 -11.25 C 43.535156 -9.082031 44.71875 -6.742188 45.40625 -4.234375 C 46.101562 -1.722656 46.253906 0.796875 45.859375 3.328125 Z M 25.171875 8.46875 C 26.523438 9.039062 27.929688 9.234375 29.390625 9.046875 C 30.859375 8.859375 32.195312 8.3125 33.40625 7.40625 C 34.6875 6.488281 35.644531 5.335938 36.28125 3.953125 C 36.925781 2.566406 37.191406 1.125 37.078125 -0.375 C 36.984375 -1.675781 36.671875 -2.894531 36.140625 -4.03125 C 35.617188 -5.175781 35.054688 -6.28125 34.453125 -7.34375 C 34.347656 -7.570312 34.234375 -7.796875 34.109375 -8.015625 C 33.992188 -8.242188 33.875 -8.484375 33.75 -8.734375 L 33.4375 -9.375 L 16.40625 4.046875 L 17.25 4.4375 C 17.707031 4.664062 18.148438 4.898438 18.578125 5.140625 C 19.015625 5.390625 19.453125 5.625 19.890625 5.84375 C 20.773438 6.363281 21.648438 6.84375 22.515625 7.28125 C 23.378906 7.71875 24.265625 8.113281 25.171875 8.46875 Z M 25.171875 8.46875 "/></g></g></g><path stroke-linecap="butt" transform="matrix(0.665683, -0.938564, 0.938564, 0.665683, -0.409701, 165.413221)" fill="none" stroke-linejoin="miter" d="M 29.208104 15.979325 C 29.64069 18.5609 29.406931 20.965821 28.50013 23.190515 C 27.605564 25.414855 26.164013 27.290484 24.172706 28.819367 C 22.182205 30.343516 19.787389 31.338688 16.986294 31.802113 C 16.36157 31.924732 15.67355 31.975712 14.92339 31.962553 C 14.178769 31.945466 13.434953 31.923646 12.689978 31.894324 C 12.317942 31.862696 11.939562 31.839728 11.550107 31.824615 C 11.165385 31.810308 10.779857 31.800734 10.402186 31.802236 L 9.886002 31.802092 L 9.934068 33.00826 C 9.972044 33.572322 10.006507 34.242923 10.036652 35.024798 C 10.065638 35.799171 10.081266 36.437349 10.080768 36.941298 L 10.082173 37.348172 C 10.052374 37.881226 10.008377 38.411865 9.956878 38.943662 C 9.908953 39.468763 9.797633 39.951426 9.613453 40.390041 C 9.242128 41.327641 8.767201 41.97247 8.190638 42.327296 C 7.613269 42.686856 7.093634 42.893095 6.630123 42.955479 C 6.006302 43.044163 5.429493 42.999617 4.897732 42.819072 C 4.36758 42.629061 3.979259 42.392562 3.737499 42.110379 L 3.589814 42.019515 C 3.094793 41.708862 2.8003 41.264308 2.698832 40.687012 C 2.609599 40.109361 2.578259 39.449031 2.609545 38.706825 C 2.637538 38.241642 2.670265 37.777265 2.700222 37.314851 C 2.736522 36.843777 2.770505 36.357699 2.802169 35.856617 C 2.861986 34.960993 2.916363 34.040094 2.961371 33.088382 C 3.008343 32.139439 3.029686 31.183701 3.030939 30.217242 C 3.028541 28.570812 2.958724 26.90561 2.813179 25.227526 C 2.675942 23.54355 2.53352 21.875738 2.380376 20.228016 C 2.221304 18.701032 2.08081 17.165035 1.959699 15.615289 C 1.837429 14.058042 1.76133 12.501343 1.731402 10.945193 C 1.731961 10.541088 1.738412 10.14529 1.755488 9.758603 C 1.771406 9.364415 1.807414 8.980949 1.868245 8.60901 C 2.119452 7.36122 2.772851 6.568999 3.829247 6.227613 C 4.107271 6.167767 4.38993 6.137928 4.672492 6.137293 C 5.446767 6.13751 6.158441 6.44849 6.812249 7.07104 C 6.904395 7.130543 7.014022 7.273373 7.144703 7.492832 C 7.233885 7.612704 7.309674 7.725429 7.37091 7.823503 L 7.700241 8.235024 L 8.075667 7.960426 C 10.246923 6.432934 12.735301 5.546204 15.536872 5.294701 C 17.961736 5.110607 20.128815 5.425656 22.042842 6.240654 C 23.956515 7.043417 25.534908 8.271268 26.781593 9.917509 C 28.027473 11.568484 28.835656 13.588166 29.208104 15.979325 Z M 18.900229 21.766986 C 20.826249 19.934805 21.386314 17.901931 20.574532 15.660057 C 20.20098 14.663932 19.596307 13.981562 18.76132 13.608211 C 18.071248 13.32769 17.25895 13.250392 16.325232 13.371586 C 15.399015 13.491621 14.521958 13.780724 13.692097 14.236127 C 12.873312 14.683674 12.255787 15.250678 11.84506 15.933211 C 10.478164 18.142952 9.79879 20.805662 9.797472 23.91973 L 9.795913 24.386974 L 10.263413 24.429971 C 10.635547 24.432397 10.976514 24.431957 11.288278 24.431419 C 14.523891 24.433931 17.059244 23.543018 18.900229 21.766986 Z M 18.900229 21.766986 " stroke="#117f84" stroke-width="2.624957" stroke-opacity="1" stroke-miterlimit="4"/><path stroke-linecap="butt" transform="matrix(0.831733, -0.795145, 0.795145, 0.831733, 24.360741, 131.373433)" fill="none" stroke-linejoin="miter" d="M 30.369344 10.249209 C 30.872581 11.486449 31.0754 12.497541 30.984947 13.279923 C 30.173663 19.591376 29.363905 25.223292 28.558017 30.173216 C 28.398454 30.978762 28.157296 31.786143 27.829851 32.600267 C 27.50219 33.404792 27.152229 34.178604 26.782421 34.92405 C 25.164625 38.257104 22.706237 40.406126 19.412057 41.371008 C 16.084279 42.336645 12.819142 41.817012 9.61686 39.821708 C 4.763727 36.807059 2.193695 32.283613 1.914019 26.25361 C 1.882544 25.814922 1.875067 25.375694 1.891804 24.945526 C 1.906088 24.513012 1.91301 24.07346 1.915133 23.634016 C 1.914967 23.413122 1.912671 23.20428 1.913045 23.007384 C 1.913204 22.800888 1.913686 22.608792 1.914383 22.426294 L 1.914887 21.914855 L 1.73239 21.914157 L 1.868371 20.273568 C 1.960219 19.126192 2.049722 17.981269 2.14157 16.833892 C 2.240457 15.679154 2.348942 14.5242 2.471827 13.368923 C 2.502964 12.938431 2.613861 12.424508 2.80228 11.83441 C 3.265455 10.436174 4.151394 9.686324 5.457751 9.587313 C 6.078936 9.556536 6.644928 9.740695 7.15562 10.134991 C 7.668549 10.522033 8.02398 11.059083 8.212206 11.741556 C 8.555944 12.826313 8.802155 14.165375 8.953078 15.75149 C 9.05362 16.805701 9.147126 17.867272 9.238285 18.931298 C 9.329229 19.985724 9.424972 21.040042 9.523169 22.096706 C 9.583501 22.750842 9.644156 23.419376 9.705135 24.10231 C 9.766114 24.785244 9.827094 25.468178 9.888073 26.151112 C 10.16802 29.203781 11.509582 31.524258 13.907958 33.112653 C 15.458123 34.139064 16.871347 34.414618 18.14774 33.944116 C 19.300096 33.510018 20.094459 32.531724 20.525921 31.004544 C 20.968897 29.455495 21.325046 27.88919 21.599061 26.300722 C 21.877875 24.712146 22.130668 23.140962 22.350187 21.584933 L 22.486939 20.832723 C 22.586804 20.148573 22.664909 19.457709 22.726052 18.760023 C 22.784742 18.059992 22.848448 17.369452 22.909915 16.686165 C 22.940483 16.123627 22.984911 15.536766 23.04576 14.932729 C 23.113646 14.32133 23.177488 13.743637 23.239416 13.187597 C 23.390452 12.002873 23.716867 10.929457 24.218556 9.962548 C 24.872482 8.718493 25.94235 8.139785 27.430722 8.233569 C 28.86565 8.299742 29.846044 8.974004 30.369344 10.249209 Z M 30.369344 10.249209 " stroke="#117f84" stroke-width="2.624957" stroke-opacity="1" stroke-miterlimit="4"/><path stroke-linecap="butt" transform="matrix(0.978246, -0.605863, 0.605863, 0.978246, 56.859354, 100.933623)" fill="none" stroke-linejoin="miter" d="M 34.949824 9.590436 C 35.131751 10.521698 35.222536 11.516307 35.222178 12.574261 L 35.132725 16.400168 C 35.070669 19.356571 35.009842 22.349673 34.949556 25.387035 C 34.888171 28.419722 34.79435 31.440308 34.664519 34.454563 C 34.572302 37.691771 33.624829 39.808306 31.816328 40.800594 C 30.07752 41.76417 27.841679 41.473547 25.107705 39.924051 C 23.701346 39.112939 22.414878 38.140486 21.243626 37.00779 C 20.083509 35.87001 19.13078 34.848695 18.385438 33.943842 C 17.451273 32.886106 16.562613 31.780684 15.721935 30.61713 C 14.884832 29.447805 14.059274 28.285629 13.248146 27.13239 C 12.904754 26.668149 12.571809 26.206385 12.245324 25.740636 C 11.920627 25.272 11.583697 24.803775 11.243192 24.341321 L 11.061552 24.009204 C 10.872335 23.760242 10.6669 23.505229 10.446346 23.248839 C 10.232942 22.980904 9.957683 22.722578 9.61301 22.473171 L 8.817437 21.868637 L 8.815614 23.360933 C 8.818875 23.542643 8.816363 23.720778 8.81564 23.896027 C 8.815605 24.063716 8.817767 24.240752 8.815665 24.43112 L 8.679783 27.461593 C 8.620003 29.389182 8.556369 31.342336 8.487782 33.316381 C 8.426755 35.291115 8.350888 37.244679 8.259082 39.172398 C 8.227456 39.887545 8.028142 40.602657 7.655776 41.326392 C 7.183984 42.288032 6.531817 42.786566 5.695289 42.815531 C 4.881571 42.878588 4.215575 42.458127 3.689741 41.553458 C 3.189028 40.808098 2.909332 40.079829 2.847765 39.366862 C 2.255274 34.475712 1.893618 29.979091 1.765682 25.878788 C 1.643108 21.769827 1.753338 17.833002 2.095275 14.06364 C 2.127162 13.412545 2.299255 12.728491 2.609766 12.014365 C 3.108701 10.738106 3.935089 9.900245 5.080271 9.495418 C 5.520961 9.377028 5.942808 9.314851 6.345125 9.316446 C 7.08928 9.314127 7.802605 9.516328 8.486885 9.920162 C 9.489192 10.48103 10.332712 11.195122 11.01456 12.06065 C 11.791221 13.056776 12.564716 14.070907 13.33972 15.101945 C 14.122973 16.126112 14.886023 17.137767 15.627772 18.132236 C 16.070519 18.69395 16.498147 19.254286 16.916429 19.816819 C 17.335399 20.371793 17.760141 20.930341 18.190655 21.492465 C 18.944637 22.486524 19.690649 23.467662 20.435154 24.431892 C 21.179658 25.396123 21.930344 26.376162 22.679652 27.37132 L 24.96085 30.309518 L 26.177382 29.841066 L 26.223603 28.999194 C 26.252368 28.817353 26.267801 28.631249 26.269903 28.440881 C 26.267331 28.251611 26.282764 28.065507 26.316202 27.882568 C 26.314014 27.170438 26.328733 26.4568 26.360358 25.741653 C 26.390884 25.021833 26.404504 24.303521 26.404103 23.588505 C 26.473884 21.818848 26.539271 20.030498 26.600263 18.223453 C 26.661255 16.416408 26.72046 14.61225 26.780763 12.812764 C 26.873415 11.444605 27.168798 10.110162 27.670489 8.803666 C 28.012503 7.961305 28.547867 7.322548 29.276581 6.887395 C 30.004197 6.447569 30.807766 6.278398 31.681516 6.376307 C 32.491903 6.466918 33.198601 6.808766 33.798723 7.400064 C 34.406404 7.992052 34.789738 8.720617 34.949824 9.590436 Z M 34.949824 9.590436 " stroke="#117f84" stroke-width="2.624957" stroke-opacity="1" stroke-miterlimit="4"/><path stroke-linecap="butt" transform="matrix(1.090405, -0.367495, 0.367495, 1.090405, 114.424891, 70.209252)" fill="none" stroke-linejoin="miter" d="M 11.105458 15.329811 C 11.327472 18.6252 11.304675 21.934805 11.039235 25.252193 C 10.772747 28.562062 10.454894 31.822379 10.08141 35.024541 L 9.796247 37.815836 C 9.704975 38.46931 9.457882 39.170576 9.057103 39.923934 C 8.304619 41.200005 7.305196 41.837582 6.062052 41.837749 C 4.912308 41.837152 4.012516 41.243725 3.361593 40.060686 C 2.548437 38.593696 2.09546 36.961506 2.003748 35.160898 C 1.914376 33.948591 1.866932 32.718172 1.867849 31.471812 C 1.868767 30.225451 1.884649 28.998463 1.914412 27.794066 C 1.911786 27.291647 1.913461 26.787095 1.913004 26.278242 C 1.915799 25.759739 1.913244 25.235849 1.912858 24.705526 L 1.913484 24.193456 L 1.730987 24.19285 C 1.763356 23.820444 1.783941 23.440484 1.80026 23.051922 C 1.815495 22.666577 1.822128 22.285497 1.822291 21.912984 C 1.885166 20.759152 1.945908 19.601019 2.004517 18.438585 C 2.065295 17.269717 2.146494 16.093402 2.244899 14.908556 C 2.366748 13.452186 2.625665 12.099329 3.031301 10.853238 C 3.341135 10.008328 3.831776 9.349739 4.498959 8.868867 C 5.167226 8.384779 5.924819 8.156486 6.767439 8.186122 C 8.603912 8.285616 9.786085 9.189155 10.309657 10.898874 C 10.711218 12.173409 10.975762 13.652533 11.105458 15.329811 Z M 11.105458 15.329811 " stroke="#117f84" stroke-width="2.624957" stroke-opacity="1" stroke-miterlimit="4"/><path stroke-linecap="butt" transform="matrix(1.132965, -0.201064, 0.201064, 1.132965, 133.075119, 63.220366)" fill="none" stroke-linejoin="miter" d="M 34.947579 9.589822 C 35.130353 10.522138 35.222605 11.517688 35.221586 12.572538 L 35.131752 16.400907 C 35.069508 19.35498 35.010173 22.350943 34.950405 25.388203 C 34.888481 28.418184 34.793131 31.442234 34.66495 34.457009 C 34.573526 37.692072 33.622629 39.805772 31.815008 40.802043 C 30.078607 41.766132 27.841364 41.472529 25.106028 39.92517 C 23.702511 39.11065 22.416152 38.141084 21.244796 37.009193 C 20.081905 35.868461 19.128727 34.847693 18.385856 33.943548 C 17.452574 32.888385 16.563394 31.778988 15.72166 30.615951 C 14.884454 29.446822 14.059433 28.286751 13.247188 27.132395 C 12.905459 26.668355 12.573758 26.206095 12.245992 25.741085 C 11.919412 25.26939 11.584962 24.803194 11.243232 24.339154 L 11.060269 24.010173 C 10.870347 23.759255 10.667055 23.505966 10.447644 23.246367 C 10.232761 22.980677 9.95809 22.721615 9.616351 22.471338 L 8.81675 21.867428 L 8.817274 23.360424 C 8.815918 23.542918 8.818497 23.722662 8.81892 23.895127 C 8.816594 24.063657 8.815831 24.242808 8.816631 24.43258 L 8.678798 27.462882 C 8.619513 29.390031 8.555483 31.343921 8.487893 33.317867 C 8.426988 35.292998 8.349587 37.244516 8.259033 39.173012 C 8.22924 39.88487 8.025795 40.603836 7.65657 41.324412 C 7.185438 42.288937 6.531674 42.786626 5.695275 42.817479 C 4.884808 42.877068 4.214426 42.458138 3.692003 41.555189 C 3.190275 40.807616 2.909371 40.078546 2.84595 39.367385 C 2.255997 34.473675 1.895154 29.979198 1.764607 25.877267 C 1.645274 21.770431 1.754683 17.831758 2.095584 14.065184 C 2.12532 13.411929 2.298249 12.728921 2.607685 12.014973 C 3.109992 10.738782 3.934783 9.899081 5.082057 9.49587 C 5.520317 9.377121 5.941807 9.314009 6.344748 9.316562 C 7.089871 9.314332 7.802152 9.51659 8.48612 9.917245 C 9.489296 10.481431 10.33186 11.192952 11.015968 12.059086 C 11.790805 13.0551 12.566018 14.068419 13.341015 15.102387 C 14.121133 16.12692 14.886319 17.13846 15.63048 18.132478 C 16.068869 18.692971 16.499981 19.255621 16.917129 19.819241 C 17.332714 20.372239 17.761076 20.930953 18.192187 21.493603 C 18.943033 22.488807 19.693502 23.466705 20.435723 24.432795 C 21.18188 25.396136 21.928413 26.376784 22.679259 27.371987 L 24.957406 30.310426 L 26.177897 29.844356 L 26.224139 29.000953 C 26.253422 28.81652 26.268742 28.633057 26.268535 28.439943 C 26.267735 28.250171 26.283055 28.066708 26.31568 27.882868 C 26.314797 27.169014 26.331219 26.454783 26.361012 25.742926 C 26.389241 25.020447 26.406257 24.302874 26.405374 23.58902 C 26.474733 21.818809 26.537031 20.030107 26.598952 18.224098 C 26.661467 16.414747 26.719452 14.611488 26.780187 12.812165 C 26.870985 11.445705 27.170207 10.109339 27.671168 8.801878 C 28.010424 7.958758 28.547313 7.323102 29.276336 6.887038 C 30.005953 6.447632 30.80532 6.275743 31.680529 6.375899 C 32.491637 6.468126 33.200246 6.807646 33.798484 7.399955 C 34.40675 7.994044 34.790896 8.724197 34.947579 9.589822 Z M 34.947579 9.589822 " stroke="#117f84" stroke-width="2.624957" stroke-opacity="1" stroke-miterlimit="4"/><path stroke-linecap="butt" transform="matrix(1.150207, 0.0325565, -0.0325565, 1.150207, 181.694582, 55.623452)" fill="none" stroke-linejoin="miter" d="M 26.450089 8.653162 C 27.446312 8.934011 28.224909 9.445165 28.785688 10.179837 C 29.349765 10.911019 29.5834 11.726269 29.493478 12.628788 C 29.394047 13.55535 29.012035 14.337084 28.34075 14.977576 C 27.672762 15.614579 26.82694 15.967944 25.803283 16.037672 C 25.308229 16.065269 24.809494 16.082782 24.310182 16.079934 C 23.807574 16.080576 23.311751 16.081026 22.815929 16.081475 C 22.568018 16.0817 22.323501 16.081829 22.089163 16.08167 C 21.861613 16.081318 21.620489 16.081351 21.369184 16.081672 L 17.076457 16.080916 L 17.16696 16.638716 C 17.23467 17.231122 17.315569 17.80957 17.406168 18.370763 C 17.496576 18.925169 17.573505 19.483353 17.633564 20.04541 C 17.825007 21.289767 17.995514 22.514339 18.148381 23.715638 C 18.307747 24.906564 18.446656 26.094673 18.568502 27.279869 C 18.727741 28.586268 18.875806 29.977885 19.012892 31.46151 C 19.156476 32.934761 19.260492 34.449887 19.321546 36.006981 C 19.349753 37.123509 19.131778 38.301343 18.661026 39.547463 C 18.036035 41.103599 16.869857 41.89734 15.162491 41.928687 C 13.422856 41.899816 12.256321 41.12116 11.66628 39.592622 C 11.104346 38.097251 10.82144 36.62115 10.820955 35.164225 C 10.820629 33.112973 10.837461 31.068027 10.868156 29.032877 C 10.898659 26.99094 10.946416 24.958704 11.014919 22.939465 C 11.015716 22.127767 11.023397 21.319271 11.037961 20.513977 C 11.052332 19.701895 11.0765 18.875952 11.107166 18.039636 C 11.10691 17.910591 11.090486 17.690307 11.061289 17.37869 L 11.015348 16.595485 L 9.465871 16.445763 C 8.941173 16.3859 8.413274 16.332919 7.882173 16.286822 C 7.357859 16.240532 6.829959 16.187552 6.298474 16.12788 C 6.019158 16.098429 5.760106 16.065008 5.525 16.037701 C 5.296297 15.996629 5.057222 15.949058 4.807582 15.888201 C 2.817922 15.424911 1.793877 14.401097 1.731959 12.813461 C 1.661524 11.164936 2.658799 10.043155 4.717093 9.451703 L 4.852925 9.451255 C 4.942915 9.390973 5.003227 9.362097 5.033768 9.361233 C 6.03047 9.29906 7.023395 9.223409 8.019328 9.134089 C 9.02176 9.034397 10.006937 8.925004 10.97137 8.802615 C 12.549433 8.642479 14.141262 8.488746 15.743271 8.334726 C 17.345184 8.177311 18.93903 8.09484 20.528491 8.097397 C 21.340092 8.094801 22.142281 8.119641 22.931474 8.165225 C 23.727452 8.210618 24.531371 8.296539 25.336538 8.426575 C 25.738977 8.486502 26.107963 8.564358 26.450089 8.653162 Z M 26.450089 8.653162 " stroke="#117f84" stroke-width="2.624957" stroke-opacity="1" stroke-miterlimit="4"/><path stroke-linecap="butt" transform="matrix(1.1275, 0.22974, -0.22974, 1.1275, 223.226224, 57.517064)" fill="none" stroke-linejoin="miter" d="M 20.721105 34.513435 C 21.274896 34.476814 21.880377 34.557848 22.53225 34.764546 C 23.186771 34.967239 23.702584 35.475358 24.080981 36.278245 C 24.667367 37.523785 24.40218 38.755758 23.284742 39.970837 C 22.601012 40.712982 21.792963 41.321089 20.856591 41.792511 C 16.87955 43.714987 12.52186 44.21142 7.790852 43.283781 C 5.019207 42.722561 3.216417 40.914177 2.379833 37.862632 C 1.848235 35.93381 1.630185 33.996531 1.719031 32.052152 C 1.818535 30.109066 1.99369 28.282217 2.244498 26.571605 C 2.45639 25.146085 2.68824 23.716498 2.938078 22.290174 C 3.189208 20.853194 3.44108 19.43685 3.690365 18.04182 C 3.811066 17.358966 3.925791 16.680795 4.032571 16.014635 C 4.147297 15.336464 4.265349 14.657614 4.38605 13.97476 L 4.431995 13.792173 C 4.4626 13.602317 4.492528 13.409134 4.521777 13.212625 C 4.55232 13.00546 4.536909 12.793799 4.478191 12.573641 C 4.136459 10.862506 4.883236 9.511617 6.721171 8.516969 C 7.063354 8.325987 7.413609 8.157613 7.770578 8.005193 C 8.127548 7.852772 8.490002 7.744273 8.863916 7.675013 L 10.866242 7.402135 C 12.302952 7.209862 13.756972 7.017526 15.23095 6.821124 C 16.710226 6.616713 18.179772 6.483575 19.639589 6.42171 C 19.768089 6.423243 19.892585 6.422127 20.013754 6.421689 C 21.479119 6.421055 22.662374 6.838215 23.556866 7.674523 C 24.369053 8.39595 24.792361 9.283228 24.820817 10.341039 C 24.852359 11.516015 24.407838 12.496973 23.489902 13.27991 C 22.577263 14.054839 21.373788 14.490608 19.880154 14.590545 C 18.914993 14.648625 17.948351 14.665433 16.986203 14.636287 C 16.020051 14.604491 15.057163 14.554709 14.090886 14.488294 L 12.872354 14.442097 C 12.287697 14.412253 11.82495 14.402606 11.481463 14.417163 C 11.141981 14.434368 10.860779 14.550563 10.639212 14.7724 C 10.418198 14.962944 10.295318 15.227034 10.264598 15.569353 C 10.233878 15.911671 10.217579 16.375774 10.218349 16.957657 C 10.217827 17.550197 10.217305 18.142737 10.216783 18.735278 C 10.219587 19.32714 10.219065 19.91968 10.218543 20.51222 L 10.219655 22.847083 L 10.822477 22.745039 C 11.163805 22.685884 11.497802 22.624757 11.825147 22.564986 C 12.151813 22.501889 12.485748 22.423453 12.825596 22.323025 C 13.549524 22.203233 14.258791 22.0795 14.958079 21.9578 C 15.656012 21.829447 16.347417 21.73707 17.030938 21.674015 C 18.770727 21.523922 20.386896 21.617283 21.884127 21.960072 C 23.220022 22.242194 23.9347 23.063173 24.02619 24.430341 C 24.09424 25.206387 23.921359 25.820189 23.51223 26.277722 C 23.111047 26.723242 22.690823 27.058313 22.257534 27.278252 C 21.165008 27.83346 20.105612 28.160187 19.079344 28.258435 C 18.086341 28.349905 17.067957 28.41883 16.027518 28.464533 C 14.98708 28.510236 13.934014 28.561976 12.872323 28.622403 C 12.439576 28.623967 11.996235 28.641547 11.53965 28.679148 C 11.092367 28.71139 10.634364 28.725029 10.17365 28.725362 L 9.705116 28.772327 L 9.706804 29.239694 C 9.704906 29.451417 9.705719 29.676445 9.705239 29.912131 C 9.704759 30.147816 9.704895 30.369518 9.707001 30.58389 C 9.704695 31.23569 9.705101 31.900796 9.704214 32.576559 C 9.705297 33.244992 9.722335 33.906709 9.751323 34.559062 C 9.749425 34.770785 9.82003 34.964269 9.956486 35.140872 C 10.100888 35.305462 10.218553 35.440855 10.308126 35.540397 C 10.436939 35.62848 10.593103 35.731776 10.775941 35.84696 C 10.967403 35.953458 11.168656 36.005992 11.379701 36.004564 C 13.127561 35.877078 15.05412 35.640426 17.167385 35.299904 C 17.4489 35.270258 17.721667 35.214679 17.98704 35.13982 C 18.252413 35.06496 18.511133 34.991456 18.760552 34.923312 C 19.102432 34.832863 19.438338 34.747096 19.762971 34.67402 C 20.090253 34.596939 20.408296 34.542528 20.721105 34.513435 Z M 20.721105 34.513435 " stroke="#117f84" stroke-width="2.624957" stroke-opacity="1" stroke-miterlimit="4"/><path stroke-linecap="butt" transform="matrix(1.063884, 0.438391, -0.438391, 1.063884, 259.271618, 64.885498)" fill="none" stroke-linejoin="miter" d="M 34.948641 9.587111 C 35.131687 10.521398 35.222054 11.515905 35.224173 12.572478 L 35.130806 16.400135 C 35.070635 19.354938 35.008997 22.350733 34.950324 25.389367 C 34.887772 28.418584 34.793643 31.442455 34.66535 34.454701 C 34.574045 37.690366 33.625116 39.807082 31.81727 40.801711 C 30.077182 41.764747 27.842459 41.473945 25.107376 39.924321 C 23.700679 39.112404 22.415256 38.140364 21.243537 37.007648 C 20.084372 35.869758 19.130016 34.845745 18.387485 33.943731 C 17.452323 32.886107 16.563312 31.780092 15.721002 30.618116 C 14.885522 29.445982 14.062787 28.286955 13.248916 27.131618 C 12.906822 26.666755 12.573592 26.205583 12.24664 25.741824 C 11.920239 25.270494 11.584423 24.803044 11.243622 24.34132 L 11.059255 24.009734 C 10.871954 23.760134 10.666925 23.503153 10.446754 23.245068 C 10.234706 22.979964 9.956555 22.72374 9.614147 22.471964 L 8.81796 21.867438 L 8.817054 23.362188 C 8.817654 23.541854 8.818254 23.721519 8.816268 23.894907 C 8.816127 24.063863 8.816728 24.243528 8.816776 24.430764 L 8.681102 27.460739 C 8.621035 29.391097 8.55488 31.342323 8.48707 33.31626 C 8.42683 35.29075 8.349965 37.242717 8.259615 39.170867 C 8.227301 39.885475 8.027325 40.603081 7.656547 41.324978 C 7.184275 42.290641 6.53 42.78789 5.695016 42.819866 C 4.882382 42.879349 4.216051 42.456301 3.689747 41.553309 C 3.188411 40.808925 2.909769 40.079256 2.847542 39.366888 C 2.255948 34.473971 1.894163 29.978365 1.765325 25.878774 C 1.643316 21.769026 1.753828 17.831498 2.09686 14.066188 C 2.124758 13.412147 2.297968 12.727601 2.610214 12.015136 C 3.10955 10.740914 3.933615 9.898323 5.080011 9.499365 C 5.521295 9.376273 5.944315 9.315783 6.344639 9.316049 C 7.089151 9.31401 7.803618 9.51528 8.48804 9.919858 C 9.489917 10.480015 10.331372 11.194398 11.015544 12.061712 C 11.792443 13.056042 12.566393 14.069945 13.340533 15.10213 C 14.122795 16.127295 14.884742 17.138802 15.62822 18.132217 C 16.069682 18.695658 16.49914 19.256702 16.91789 19.818487 C 17.334052 20.373994 17.757785 20.930054 18.191676 21.492943 C 18.942724 22.48691 19.691738 23.46703 20.437423 24.430162 C 21.181263 25.397726 21.928984 26.374706 22.681325 27.371812 L 24.960494 30.309946 L 26.177409 29.841541 L 26.223539 29.000074 C 26.255067 28.818184 26.27016 28.632052 26.268819 28.441677 C 26.267477 28.251302 26.28257 28.06517 26.314098 27.88328 C 26.314284 27.170896 26.328317 26.456478 26.360631 25.74187 C 26.390358 25.020984 26.406237 24.302133 26.406422 23.589749 C 26.473177 21.818189 26.537898 20.032781 26.599842 18.222815 C 26.659941 16.417281 26.72004 14.611747 26.782726 12.81249 C 26.873221 11.446049 27.170164 10.10836 27.670415 8.800716 C 28.010325 7.959358 28.548418 7.322726 29.275831 6.887131 C 30.005089 6.447104 30.805877 6.27868 31.680041 6.377427 C 32.492345 6.468619 33.198169 6.809302 33.798808 7.402616 C 34.405724 7.993343 34.79091 8.723169 34.948641 9.587111 Z M 34.948641 9.587111 " stroke="#117f84" stroke-width="2.624957" stroke-opacity="1" stroke-miterlimit="4"/><path stroke-linecap="butt" transform="matrix(0.950889, 0.647955, -0.647955, 0.950889, 304.497525, 84.575538)" fill="none" stroke-linejoin="miter" d="M 25.528572 12.254463 C 27.138763 13.839769 28.387433 15.708395 29.277388 17.858428 C 30.166326 20.000938 30.607222 22.251569 30.609513 24.612106 C 30.60826 29.686337 28.603866 33.701828 24.59442 36.655776 C 19.461411 40.420529 13.830505 42.441805 7.699791 42.716797 C 6.265474 42.782193 4.862512 42.411316 3.496515 41.600343 C 2.632111 41.13361 2.087394 40.436711 1.86887 39.501107 C 1.555534 38.408277 1.75588 37.273514 2.472712 36.094907 C 3.065563 35.132239 3.376411 34.12347 3.408062 33.066687 C 3.437153 31.107889 3.466244 29.149091 3.498141 27.188381 C 3.526215 25.222061 3.558881 23.244394 3.586706 21.253595 C 3.620218 19.9162 3.640473 18.571407 3.656905 17.221003 C 3.680858 15.869582 3.70583 14.525682 3.734625 13.187394 C 3.735517 12.254271 3.820371 11.522738 3.987401 11.002229 C 4.16183 10.468462 4.473921 10.046289 4.920868 9.737622 C 5.378144 9.426026 6.038002 9.128381 6.902355 8.847494 C 7.586544 8.627754 8.300176 8.433138 9.045165 8.266452 C 9.796657 8.091226 10.528513 7.929381 11.243536 7.779006 C 11.494207 7.706786 11.741303 7.653433 11.984701 7.60671 C 12.232815 7.56088 12.484628 7.508421 12.735424 7.44844 L 12.781502 7.721033 L 13.20427 7.72051 C 15.564832 7.627828 17.813081 7.973181 19.946212 8.758482 C 22.079218 9.531544 23.942215 10.698104 25.528572 12.254463 Z M 18.705296 29.466232 C 19.796561 28.812999 20.647184 27.92116 21.257164 26.790716 C 21.864215 25.649945 22.152172 24.426725 22.121036 23.121059 C 22.123193 21.755734 21.79218 20.498306 21.12991 19.351579 C 20.478861 18.197206 19.592906 17.276846 18.478673 16.594199 C 17.5132 16.00326 16.491322 15.606861 15.412146 15.409718 C 14.344191 15.204928 13.27852 15.039662 12.223549 14.908184 C 12.001974 14.878418 11.783204 14.84674 11.561629 14.816974 C 11.349488 14.788995 11.118479 14.757442 10.867708 14.72703 L 10.262268 14.634305 L 11.152539 33.429727 L 11.846583 33.067708 C 12.257682 32.845089 12.654878 32.644268 13.043782 32.461421 C 13.428863 32.272963 13.809227 32.083611 14.182068 31.895278 C 14.995577 31.521689 15.771349 31.14095 16.518819 30.754849 C 17.261573 30.367854 17.990696 29.936743 18.705296 29.466232 Z M 18.705296 29.466232 " stroke="#117f84" stroke-width="2.624957" stroke-opacity="1" stroke-miterlimit="4"/><path stroke-linecap="butt" transform="matrix(0.822702, 0.804486, -0.804486, 0.822702, 339.55173, 109.426349)" fill="none" stroke-linejoin="miter" d="M 20.721269 34.515385 C 21.276252 34.475986 21.880271 34.559568 22.530953 34.763703 C 23.186436 34.967891 23.701687 35.475388 24.08399 36.279073 C 24.665402 37.524299 24.401958 38.755265 23.284055 39.971865 C 22.601156 40.715612 21.792572 41.321117 20.85825 41.793181 C 16.878125 43.714726 12.525057 44.210933 7.791818 43.28412 C 5.020594 42.722561 3.216348 40.916305 2.381508 37.86298 C 1.84856 35.934121 1.630187 33.996781 1.719162 32.05328 C 1.820165 30.107512 1.991834 28.282566 2.243824 26.573749 C 2.456665 25.145366 2.688709 23.717197 2.939955 22.289244 C 3.188882 20.854062 3.442394 19.438137 3.690891 18.041361 C 3.811364 17.358535 3.926983 16.680455 4.032893 16.011869 C 4.146084 15.336163 4.26413 14.65571 4.386977 13.975311 L 4.432225 13.793371 C 4.463178 13.601668 4.491758 13.407539 4.522765 13.211035 C 4.55388 13.004931 4.537042 12.793488 4.477106 12.571961 C 4.136138 10.863707 4.88347 9.510925 6.721475 8.516042 C 7.06447 8.327833 7.41205 8.15888 7.76907 8.004436 C 8.126036 7.854793 8.492173 7.743662 8.862628 7.675791 L 10.867821 7.400563 C 12.303093 7.212579 13.755247 7.017582 15.229031 6.820426 C 16.710096 6.61615 18.180754 6.483776 19.638631 6.420877 C 19.768248 6.422328 19.895492 6.421352 20.015507 6.422696 C 21.482287 6.422312 22.663527 6.838839 23.556801 7.674651 C 24.372128 8.396761 24.791922 9.282486 24.823305 10.339108 C 24.853343 11.515745 24.407842 12.49741 23.491656 13.279356 C 22.577951 14.054128 21.375169 14.489578 19.878457 14.590452 C 18.915152 14.649286 17.94753 14.66486 16.982819 14.634855 C 16.020535 14.602477 15.056039 14.553269 14.091758 14.484859 L 12.872721 14.442405 C 12.287313 14.411845 11.824079 14.404258 11.48302 14.419645 C 11.14196 14.435032 10.859807 14.549503 10.638879 14.770287 C 10.418274 14.962267 10.292876 15.227332 10.265057 15.567907 C 10.234811 15.910857 10.217623 16.373983 10.218294 16.95734 C 10.218858 17.550298 10.219421 18.143256 10.219985 18.736214 C 10.218175 19.326745 10.218739 19.919703 10.219302 20.512661 L 10.21956 22.848462 L 10.820874 22.744765 C 11.164845 22.683799 11.496786 22.625099 11.826355 22.563972 C 12.151123 22.502792 12.485707 22.422516 12.82768 22.325518 C 13.549225 22.203963 14.258796 22.079873 14.958711 21.960476 C 15.656361 21.82905 16.34878 21.735976 17.031221 21.676399 C 18.770983 21.523032 20.387934 21.617953 21.884503 21.95879 C 23.218495 22.240193 23.934253 23.064414 24.026977 24.431402 C 24.092707 25.207536 23.922607 25.820189 23.511768 26.278909 C 23.108264 26.725707 22.694021 27.059556 22.259439 27.280349 C 21.165782 27.832249 20.105828 28.16127 19.082058 28.260238 C 18.0872 28.349926 17.068553 28.420143 16.028599 28.463715 C 14.986218 28.50966 13.936556 28.562726 12.872384 28.625231 C 12.440274 28.625195 11.995974 28.641826 11.539431 28.679926 C 11.090169 28.710906 10.636268 28.72743 10.17298 28.724644 L 9.706728 28.772238 L 9.706316 29.237953 C 9.706325 29.451607 9.706226 29.674864 9.705966 29.912521 C 9.70576 30.145379 9.705661 30.368635 9.70567 30.58229 C 9.705535 31.237656 9.705292 31.902623 9.704942 32.577192 C 9.707073 33.244587 9.721286 33.904915 9.752382 34.55823 C 9.752391 34.771885 9.819823 34.967089 9.954733 35.139043 C 10.099298 35.306304 10.220236 35.439692 10.307946 35.539099 C 10.438969 35.629389 10.596261 35.731975 10.775022 35.846805 C 10.968292 35.952195 11.166954 36.004832 11.380608 36.004824 C 13.127275 35.87794 15.055229 35.640257 17.166789 35.299003 C 17.447975 35.270943 17.722256 35.216399 17.987204 35.137744 C 18.252098 35.06389 18.509765 34.992355 18.760204 34.923141 C 19.104496 34.833371 19.439134 34.748295 19.764063 34.672712 C 20.088992 34.597129 20.411279 34.543123 20.721269 34.515385 Z M 20.721269 34.515385 " stroke="#117f84" stroke-width="2.624957" stroke-opacity="1" stroke-miterlimit="4"/><path stroke-linecap="butt" transform="matrix(0.66908, 0.936145, -0.936145, 0.66908, 365.359903, 134.96)" fill="none" stroke-linejoin="miter" d="M 25.529302 12.254836 C 27.136586 13.841725 28.389013 15.709097 29.277113 17.858528 C 30.166398 20.000461 30.609321 22.253158 30.607855 24.613857 C 30.607585 29.687665 28.603274 33.700517 24.592947 36.655176 C 19.459654 40.422064 13.831201 42.441371 7.700879 42.716647 C 6.263998 42.782928 4.863944 42.41236 3.497165 41.598234 C 2.631471 41.133896 2.087077 40.436027 1.868717 39.50384 C 1.557664 38.409431 1.758463 37.2761 2.472299 36.096349 C 3.064131 35.134007 3.374998 34.12107 3.406476 33.067012 C 3.435452 31.10569 3.46719 29.146342 3.496953 27.189756 C 3.527115 25.220936 3.558463 23.244619 3.587447 21.254094 C 3.617823 19.915504 3.642675 18.572967 3.656479 17.222534 C 3.679756 15.870525 3.706582 14.525225 3.736957 13.186636 C 3.735251 12.254905 3.818333 11.525645 3.988966 11.000831 C 4.160784 10.468519 4.473059 10.049113 4.922243 9.735902 C 5.376949 9.42664 6.035678 9.129669 6.903953 8.848939 C 7.587523 8.628139 8.30226 8.43379 9.043431 8.266677 C 9.79802 8.092466 10.527745 7.929691 11.242076 7.776778 C 11.493872 7.710551 11.739745 7.652611 11.985221 7.606903 C 12.235432 7.560408 12.484855 7.509177 12.734677 7.445713 L 12.780375 7.720391 L 13.20145 7.720906 C 15.566122 7.62924 17.813857 7.975583 19.94663 8.757175 C 22.080588 9.531269 23.941741 10.698735 25.529302 12.254836 Z M 18.70549 29.467995 C 19.798814 28.814005 20.650295 27.920403 21.25796 26.789951 C 21.86405 25.650028 22.152483 24.429113 22.12247 23.122472 C 22.123652 21.754671 21.790546 20.498456 21.132625 19.352251 C 20.477864 18.195786 19.594937 17.276825 18.476346 16.594182 C 17.514003 16.002351 16.491621 15.60545 15.412747 15.410192 C 14.34177 15.203886 13.279858 15.037441 12.224249 14.908883 C 12.004842 14.877249 11.783461 14.848377 11.564053 14.816744 C 11.35017 14.789058 11.118529 14.757026 10.867944 14.728146 L 10.263392 14.63405 L 11.154219 33.430323 L 11.84809 33.066669 C 12.256599 32.845397 12.654053 32.645431 13.042425 32.464011 C 13.429221 32.273119 13.811281 32.083015 14.181107 31.892513 C 14.992976 31.521395 15.774065 31.140797 16.517666 30.754269 C 17.261267 30.367741 17.990279 29.937404 18.70549 29.467995 Z M 18.70549 29.467995 " stroke="#117f84" stroke-width="2.624957" stroke-opacity="1" stroke-miterlimit="4"/></svg>